<mxfile host="app.diagrams.net" modified="2024-05-19T10:23:17.205Z" agent="Mozilla/5.0 (Windows NT 10.0; Win64; x64) AppleWebKit/537.36 (KHTML, like Gecko) Chrome/124.0.0.0 Safari/537.36" etag="69sqiVZoyWmqPyXmJtdo" version="24.4.3" type="github">
  <diagram name="Page-1" id="xHAjWHPY_DkZx5Skzk0E">
    <mxGraphModel dx="838" dy="446" grid="1" gridSize="10" guides="1" tooltips="1" connect="1" arrows="0" fold="1" page="1" pageScale="1" pageWidth="850" pageHeight="1100" math="0" shadow="0">
      <root>
        <mxCell id="0" />
        <mxCell id="1" parent="0" />
        <mxCell id="JRVUR8td_TuOC18Qz_Jx-1" value="" style="rounded=0;whiteSpace=wrap;html=1;" vertex="1" parent="1">
          <mxGeometry x="190" y="334" width="500" height="380" as="geometry" />
        </mxCell>
        <mxCell id="JRVUR8td_TuOC18Qz_Jx-2" value="" style="whiteSpace=wrap;html=1;" vertex="1" parent="1">
          <mxGeometry x="290" y="334" width="400" height="380" as="geometry" />
        </mxCell>
        <mxCell id="JRVUR8td_TuOC18Qz_Jx-36" value="Django Project" style="text;html=1;align=center;verticalAlign=middle;whiteSpace=wrap;rounded=0;" vertex="1" parent="1">
          <mxGeometry x="546" y="310" width="90" height="30" as="geometry" />
        </mxCell>
        <mxCell id="JRVUR8td_TuOC18Qz_Jx-56" value="" style="whiteSpace=wrap;html=1;" vertex="1" parent="1">
          <mxGeometry x="500" y="540" width="170" height="160" as="geometry" />
        </mxCell>
        <mxCell id="JRVUR8td_TuOC18Qz_Jx-57" value="" style="rounded=0;whiteSpace=wrap;html=1;" vertex="1" parent="1">
          <mxGeometry x="550" y="540" width="120" height="160" as="geometry" />
        </mxCell>
        <mxCell id="JRVUR8td_TuOC18Qz_Jx-64" value="App n" style="text;html=1;align=center;verticalAlign=middle;whiteSpace=wrap;rounded=0;" vertex="1" parent="1">
          <mxGeometry x="631" y="517" width="50" height="30" as="geometry" />
        </mxCell>
        <mxCell id="JRVUR8td_TuOC18Qz_Jx-70" value="" style="rounded=0;whiteSpace=wrap;html=1;" vertex="1" parent="1">
          <mxGeometry x="190" y="334" width="100" height="40" as="geometry" />
        </mxCell>
        <mxCell id="JRVUR8td_TuOC18Qz_Jx-65" value="Project&lt;div&gt;URL&lt;/div&gt;" style="text;html=1;align=center;verticalAlign=middle;whiteSpace=wrap;rounded=0;" vertex="1" parent="1">
          <mxGeometry x="210" y="339" width="60" height="30" as="geometry" />
        </mxCell>
        <mxCell id="JRVUR8td_TuOC18Qz_Jx-74" value="" style="rounded=0;whiteSpace=wrap;html=1;" vertex="1" parent="1">
          <mxGeometry x="500" y="540" width="50" height="30" as="geometry" />
        </mxCell>
        <mxCell id="JRVUR8td_TuOC18Qz_Jx-69" value="Appn&lt;div&gt;URL&lt;/div&gt;" style="text;html=1;align=center;verticalAlign=middle;whiteSpace=wrap;rounded=0;" vertex="1" parent="1">
          <mxGeometry x="510" y="540" width="30" height="30" as="geometry" />
        </mxCell>
        <mxCell id="JRVUR8td_TuOC18Qz_Jx-81" value="" style="rounded=0;whiteSpace=wrap;html=1;" vertex="1" parent="1">
          <mxGeometry x="570" y="556.5" width="30" height="30" as="geometry" />
        </mxCell>
        <mxCell id="JRVUR8td_TuOC18Qz_Jx-82" value="" style="rounded=0;whiteSpace=wrap;html=1;" vertex="1" parent="1">
          <mxGeometry x="618" y="556.5" width="30" height="30" as="geometry" />
        </mxCell>
        <mxCell id="JRVUR8td_TuOC18Qz_Jx-83" value="" style="rounded=0;whiteSpace=wrap;html=1;" vertex="1" parent="1">
          <mxGeometry x="570" y="603.5" width="30" height="30" as="geometry" />
        </mxCell>
        <mxCell id="JRVUR8td_TuOC18Qz_Jx-84" value="" style="rounded=0;whiteSpace=wrap;html=1;" vertex="1" parent="1">
          <mxGeometry x="618" y="603.5" width="30" height="30" as="geometry" />
        </mxCell>
        <mxCell id="JRVUR8td_TuOC18Qz_Jx-85" value="" style="rounded=0;whiteSpace=wrap;html=1;" vertex="1" parent="1">
          <mxGeometry x="570" y="653.5" width="30" height="30" as="geometry" />
        </mxCell>
        <mxCell id="JRVUR8td_TuOC18Qz_Jx-86" value="" style="rounded=0;whiteSpace=wrap;html=1;" vertex="1" parent="1">
          <mxGeometry x="618" y="653.5" width="30" height="30" as="geometry" />
        </mxCell>
        <mxCell id="JRVUR8td_TuOC18Qz_Jx-88" value="view&lt;div&gt;2&lt;/div&gt;" style="text;html=1;align=center;verticalAlign=middle;whiteSpace=wrap;rounded=0;" vertex="1" parent="1">
          <mxGeometry x="618" y="556.5" width="30" height="30" as="geometry" />
        </mxCell>
        <mxCell id="JRVUR8td_TuOC18Qz_Jx-319" style="edgeStyle=orthogonalEdgeStyle;rounded=0;orthogonalLoop=1;jettySize=auto;html=1;exitX=1;exitY=0.5;exitDx=0;exitDy=0;entryX=0.5;entryY=0;entryDx=0;entryDy=0;" edge="1" parent="1" source="JRVUR8td_TuOC18Qz_Jx-129" target="JRVUR8td_TuOC18Qz_Jx-294">
          <mxGeometry relative="1" as="geometry">
            <Array as="points">
              <mxPoint x="300" y="399" />
              <mxPoint x="300" y="344" />
              <mxPoint x="336" y="344" />
            </Array>
          </mxGeometry>
        </mxCell>
        <mxCell id="JRVUR8td_TuOC18Qz_Jx-129" value="App1/" style="text;html=1;align=center;verticalAlign=middle;whiteSpace=wrap;rounded=0;fontStyle=1;fontSize=14;" vertex="1" parent="1">
          <mxGeometry x="220" y="384" width="40" height="30" as="geometry" />
        </mxCell>
        <mxCell id="JRVUR8td_TuOC18Qz_Jx-320" style="edgeStyle=orthogonalEdgeStyle;rounded=0;orthogonalLoop=1;jettySize=auto;html=1;exitX=1;exitY=0.5;exitDx=0;exitDy=0;entryX=0.5;entryY=0;entryDx=0;entryDy=0;" edge="1" parent="1" source="JRVUR8td_TuOC18Qz_Jx-131" target="JRVUR8td_TuOC18Qz_Jx-265">
          <mxGeometry relative="1" as="geometry">
            <mxPoint x="255" y="429" as="sourcePoint" />
            <mxPoint x="520.5" y="358" as="targetPoint" />
            <Array as="points">
              <mxPoint x="295" y="429" />
              <mxPoint x="295" y="338" />
              <mxPoint x="530" y="338" />
              <mxPoint x="530" y="344" />
              <mxPoint x="525" y="344" />
            </Array>
          </mxGeometry>
        </mxCell>
        <mxCell id="JRVUR8td_TuOC18Qz_Jx-131" value="App2/" style="text;html=1;align=center;verticalAlign=middle;whiteSpace=wrap;rounded=0;fontStyle=1;fontSize=14;" vertex="1" parent="1">
          <mxGeometry x="220" y="414" width="40" height="30" as="geometry" />
        </mxCell>
        <mxCell id="JRVUR8td_TuOC18Qz_Jx-321" style="edgeStyle=orthogonalEdgeStyle;rounded=0;orthogonalLoop=1;jettySize=auto;html=1;exitX=1;exitY=0.5;exitDx=0;exitDy=0;entryX=0.5;entryY=0;entryDx=0;entryDy=0;" edge="1" parent="1" source="JRVUR8td_TuOC18Qz_Jx-132" target="JRVUR8td_TuOC18Qz_Jx-236">
          <mxGeometry relative="1" as="geometry">
            <mxPoint x="260" y="462.0000000000001" as="sourcePoint" />
            <mxPoint x="334.99613899613905" y="543.5" as="targetPoint" />
            <Array as="points">
              <mxPoint x="300" y="459" />
              <mxPoint x="300" y="527" />
              <mxPoint x="335" y="527" />
            </Array>
          </mxGeometry>
        </mxCell>
        <mxCell id="JRVUR8td_TuOC18Qz_Jx-132" value="App3&lt;span style=&quot;background-color: initial; font-size: 14px;&quot;&gt;/&lt;/span&gt;" style="text;html=1;align=center;verticalAlign=middle;whiteSpace=wrap;rounded=0;fontStyle=1;fontSize=14;" vertex="1" parent="1">
          <mxGeometry x="220" y="444" width="40" height="30" as="geometry" />
        </mxCell>
        <mxCell id="JRVUR8td_TuOC18Qz_Jx-332" style="edgeStyle=orthogonalEdgeStyle;rounded=0;orthogonalLoop=1;jettySize=auto;html=1;exitX=1;exitY=0.5;exitDx=0;exitDy=0;entryX=0.5;entryY=0;entryDx=0;entryDy=0;" edge="1" parent="1" source="JRVUR8td_TuOC18Qz_Jx-133" target="JRVUR8td_TuOC18Qz_Jx-69">
          <mxGeometry relative="1" as="geometry">
            <mxPoint x="265" y="484.5" as="sourcePoint" />
            <mxPoint x="530" y="532" as="targetPoint" />
            <Array as="points">
              <mxPoint x="295" y="487" />
              <mxPoint x="295" y="524" />
              <mxPoint x="525" y="524" />
            </Array>
          </mxGeometry>
        </mxCell>
        <mxCell id="JRVUR8td_TuOC18Qz_Jx-133" value="Appn&lt;span style=&quot;background-color: initial; font-size: 14px;&quot;&gt;/&lt;/span&gt;" style="text;html=1;align=center;verticalAlign=middle;whiteSpace=wrap;rounded=0;fontStyle=1;fontSize=14;" vertex="1" parent="1">
          <mxGeometry x="220" y="472.5" width="40" height="30" as="geometry" />
        </mxCell>
        <mxCell id="JRVUR8td_TuOC18Qz_Jx-226" style="edgeStyle=orthogonalEdgeStyle;rounded=0;orthogonalLoop=1;jettySize=auto;html=1;exitX=1;exitY=0.5;exitDx=0;exitDy=0;entryX=0.5;entryY=0;entryDx=0;entryDy=0;" edge="1" parent="1" source="JRVUR8td_TuOC18Qz_Jx-159" target="JRVUR8td_TuOC18Qz_Jx-215">
          <mxGeometry relative="1" as="geometry">
            <Array as="points">
              <mxPoint x="560" y="586" />
              <mxPoint x="560" y="550" />
              <mxPoint x="585" y="550" />
            </Array>
          </mxGeometry>
        </mxCell>
        <mxCell id="JRVUR8td_TuOC18Qz_Jx-159" value="v1/" style="text;html=1;align=center;verticalAlign=middle;whiteSpace=wrap;rounded=0;" vertex="1" parent="1">
          <mxGeometry x="510" y="576" width="30" height="20" as="geometry" />
        </mxCell>
        <mxCell id="JRVUR8td_TuOC18Qz_Jx-215" value="view&lt;div&gt;1&lt;/div&gt;" style="text;html=1;align=center;verticalAlign=middle;whiteSpace=wrap;rounded=0;" vertex="1" parent="1">
          <mxGeometry x="570" y="556.5" width="30" height="30" as="geometry" />
        </mxCell>
        <mxCell id="JRVUR8td_TuOC18Qz_Jx-216" value="view&lt;div&gt;3&lt;/div&gt;" style="text;html=1;align=center;verticalAlign=middle;whiteSpace=wrap;rounded=0;" vertex="1" parent="1">
          <mxGeometry x="570" y="603.5" width="30" height="30" as="geometry" />
        </mxCell>
        <mxCell id="JRVUR8td_TuOC18Qz_Jx-217" value="view&lt;div&gt;4&lt;/div&gt;" style="text;html=1;align=center;verticalAlign=middle;whiteSpace=wrap;rounded=0;" vertex="1" parent="1">
          <mxGeometry x="618" y="604" width="30" height="30" as="geometry" />
        </mxCell>
        <mxCell id="JRVUR8td_TuOC18Qz_Jx-218" value="view&lt;div&gt;n&lt;/div&gt;" style="text;html=1;align=center;verticalAlign=middle;whiteSpace=wrap;rounded=0;" vertex="1" parent="1">
          <mxGeometry x="618" y="653.5" width="30" height="30" as="geometry" />
        </mxCell>
        <mxCell id="JRVUR8td_TuOC18Qz_Jx-219" value="view&lt;div&gt;5&lt;/div&gt;" style="text;html=1;align=center;verticalAlign=middle;whiteSpace=wrap;rounded=0;" vertex="1" parent="1">
          <mxGeometry x="570" y="653.5" width="30" height="30" as="geometry" />
        </mxCell>
        <mxCell id="JRVUR8td_TuOC18Qz_Jx-221" value="v2/" style="text;html=1;align=center;verticalAlign=middle;whiteSpace=wrap;rounded=0;" vertex="1" parent="1">
          <mxGeometry x="510" y="596" width="30" height="20" as="geometry" />
        </mxCell>
        <mxCell id="JRVUR8td_TuOC18Qz_Jx-228" style="edgeStyle=orthogonalEdgeStyle;rounded=0;orthogonalLoop=1;jettySize=auto;html=1;exitX=1;exitY=0.5;exitDx=0;exitDy=0;entryX=0.5;entryY=0;entryDx=0;entryDy=0;" edge="1" parent="1" source="JRVUR8td_TuOC18Qz_Jx-222" target="JRVUR8td_TuOC18Qz_Jx-216">
          <mxGeometry relative="1" as="geometry">
            <Array as="points">
              <mxPoint x="560" y="626" />
              <mxPoint x="560" y="600" />
              <mxPoint x="585" y="600" />
            </Array>
          </mxGeometry>
        </mxCell>
        <mxCell id="JRVUR8td_TuOC18Qz_Jx-222" value="v3/" style="text;html=1;align=center;verticalAlign=middle;whiteSpace=wrap;rounded=0;" vertex="1" parent="1">
          <mxGeometry x="510" y="616" width="30" height="20" as="geometry" />
        </mxCell>
        <mxCell id="JRVUR8td_TuOC18Qz_Jx-223" value="v4/" style="text;html=1;align=center;verticalAlign=middle;whiteSpace=wrap;rounded=0;" vertex="1" parent="1">
          <mxGeometry x="510" y="636" width="30" height="20" as="geometry" />
        </mxCell>
        <mxCell id="JRVUR8td_TuOC18Qz_Jx-230" style="edgeStyle=orthogonalEdgeStyle;rounded=0;orthogonalLoop=1;jettySize=auto;html=1;exitX=1;exitY=0.5;exitDx=0;exitDy=0;entryX=0.5;entryY=0;entryDx=0;entryDy=0;" edge="1" parent="1" source="JRVUR8td_TuOC18Qz_Jx-224" target="JRVUR8td_TuOC18Qz_Jx-219">
          <mxGeometry relative="1" as="geometry">
            <Array as="points">
              <mxPoint x="560" y="665" />
              <mxPoint x="560" y="650" />
              <mxPoint x="585" y="650" />
            </Array>
          </mxGeometry>
        </mxCell>
        <mxCell id="JRVUR8td_TuOC18Qz_Jx-224" value="v5/" style="text;html=1;align=center;verticalAlign=middle;whiteSpace=wrap;rounded=0;" vertex="1" parent="1">
          <mxGeometry x="510" y="654.5" width="30" height="20" as="geometry" />
        </mxCell>
        <mxCell id="JRVUR8td_TuOC18Qz_Jx-231" style="edgeStyle=orthogonalEdgeStyle;rounded=0;orthogonalLoop=1;jettySize=auto;html=1;exitX=1;exitY=0.5;exitDx=0;exitDy=0;entryX=0.5;entryY=0;entryDx=0;entryDy=0;" edge="1" parent="1" source="JRVUR8td_TuOC18Qz_Jx-225" target="JRVUR8td_TuOC18Qz_Jx-218">
          <mxGeometry relative="1" as="geometry">
            <Array as="points">
              <mxPoint x="560" y="684" />
              <mxPoint x="560" y="690" />
              <mxPoint x="610" y="690" />
              <mxPoint x="610" y="650" />
              <mxPoint x="633" y="650" />
            </Array>
          </mxGeometry>
        </mxCell>
        <mxCell id="JRVUR8td_TuOC18Qz_Jx-225" value="vn/" style="text;html=1;align=center;verticalAlign=middle;whiteSpace=wrap;rounded=0;" vertex="1" parent="1">
          <mxGeometry x="510" y="674.5" width="30" height="20" as="geometry" />
        </mxCell>
        <mxCell id="JRVUR8td_TuOC18Qz_Jx-227" style="edgeStyle=orthogonalEdgeStyle;rounded=0;orthogonalLoop=1;jettySize=auto;html=1;exitX=1;exitY=0.5;exitDx=0;exitDy=0;entryX=0.5;entryY=0;entryDx=0;entryDy=0;" edge="1" parent="1" source="JRVUR8td_TuOC18Qz_Jx-221" target="JRVUR8td_TuOC18Qz_Jx-88">
          <mxGeometry relative="1" as="geometry">
            <mxPoint x="545" y="606" as="sourcePoint" />
            <mxPoint x="638.21" y="554.1899999999999" as="targetPoint" />
            <Array as="points">
              <mxPoint x="555" y="606" />
              <mxPoint x="555" y="590" />
              <mxPoint x="610" y="590" />
              <mxPoint x="610" y="550" />
              <mxPoint x="633" y="550" />
            </Array>
          </mxGeometry>
        </mxCell>
        <mxCell id="JRVUR8td_TuOC18Qz_Jx-229" style="edgeStyle=orthogonalEdgeStyle;rounded=0;orthogonalLoop=1;jettySize=auto;html=1;exitX=1;exitY=0.5;exitDx=0;exitDy=0;entryX=0.5;entryY=0;entryDx=0;entryDy=0;" edge="1" parent="1" source="JRVUR8td_TuOC18Qz_Jx-223" target="JRVUR8td_TuOC18Qz_Jx-217">
          <mxGeometry relative="1" as="geometry">
            <Array as="points">
              <mxPoint x="560" y="646" />
              <mxPoint x="560" y="640" />
              <mxPoint x="610" y="640" />
              <mxPoint x="610" y="600" />
              <mxPoint x="633" y="600" />
            </Array>
          </mxGeometry>
        </mxCell>
        <mxCell id="JRVUR8td_TuOC18Qz_Jx-232" value="" style="whiteSpace=wrap;html=1;" vertex="1" parent="1">
          <mxGeometry x="310" y="540.5" width="170" height="160" as="geometry" />
        </mxCell>
        <mxCell id="JRVUR8td_TuOC18Qz_Jx-233" value="" style="rounded=0;whiteSpace=wrap;html=1;" vertex="1" parent="1">
          <mxGeometry x="360" y="540.5" width="120" height="160" as="geometry" />
        </mxCell>
        <mxCell id="JRVUR8td_TuOC18Qz_Jx-234" value="App 3" style="text;html=1;align=center;verticalAlign=middle;whiteSpace=wrap;rounded=0;" vertex="1" parent="1">
          <mxGeometry x="441" y="517.5" width="50" height="30" as="geometry" />
        </mxCell>
        <mxCell id="JRVUR8td_TuOC18Qz_Jx-235" value="" style="rounded=0;whiteSpace=wrap;html=1;" vertex="1" parent="1">
          <mxGeometry x="310" y="540.5" width="50" height="30" as="geometry" />
        </mxCell>
        <mxCell id="JRVUR8td_TuOC18Qz_Jx-236" value="App3&lt;div&gt;URL&lt;/div&gt;" style="text;html=1;align=center;verticalAlign=middle;whiteSpace=wrap;rounded=0;" vertex="1" parent="1">
          <mxGeometry x="320" y="540.5" width="30" height="30" as="geometry" />
        </mxCell>
        <mxCell id="JRVUR8td_TuOC18Qz_Jx-237" value="" style="rounded=0;whiteSpace=wrap;html=1;" vertex="1" parent="1">
          <mxGeometry x="380" y="557" width="30" height="30" as="geometry" />
        </mxCell>
        <mxCell id="JRVUR8td_TuOC18Qz_Jx-238" value="" style="rounded=0;whiteSpace=wrap;html=1;" vertex="1" parent="1">
          <mxGeometry x="428" y="557" width="30" height="30" as="geometry" />
        </mxCell>
        <mxCell id="JRVUR8td_TuOC18Qz_Jx-239" value="" style="rounded=0;whiteSpace=wrap;html=1;" vertex="1" parent="1">
          <mxGeometry x="380" y="604" width="30" height="30" as="geometry" />
        </mxCell>
        <mxCell id="JRVUR8td_TuOC18Qz_Jx-240" value="" style="rounded=0;whiteSpace=wrap;html=1;" vertex="1" parent="1">
          <mxGeometry x="428" y="604" width="30" height="30" as="geometry" />
        </mxCell>
        <mxCell id="JRVUR8td_TuOC18Qz_Jx-241" value="" style="rounded=0;whiteSpace=wrap;html=1;" vertex="1" parent="1">
          <mxGeometry x="380" y="654" width="30" height="30" as="geometry" />
        </mxCell>
        <mxCell id="JRVUR8td_TuOC18Qz_Jx-242" value="" style="rounded=0;whiteSpace=wrap;html=1;" vertex="1" parent="1">
          <mxGeometry x="428" y="654" width="30" height="30" as="geometry" />
        </mxCell>
        <mxCell id="JRVUR8td_TuOC18Qz_Jx-243" value="view&lt;div&gt;2&lt;/div&gt;" style="text;html=1;align=center;verticalAlign=middle;whiteSpace=wrap;rounded=0;" vertex="1" parent="1">
          <mxGeometry x="428" y="557" width="30" height="30" as="geometry" />
        </mxCell>
        <mxCell id="JRVUR8td_TuOC18Qz_Jx-244" style="edgeStyle=orthogonalEdgeStyle;rounded=0;orthogonalLoop=1;jettySize=auto;html=1;exitX=1;exitY=0.5;exitDx=0;exitDy=0;entryX=0.5;entryY=0;entryDx=0;entryDy=0;" edge="1" parent="1" source="JRVUR8td_TuOC18Qz_Jx-245" target="JRVUR8td_TuOC18Qz_Jx-246">
          <mxGeometry relative="1" as="geometry">
            <Array as="points">
              <mxPoint x="370" y="586.5" />
              <mxPoint x="370" y="550.5" />
              <mxPoint x="395" y="550.5" />
            </Array>
          </mxGeometry>
        </mxCell>
        <mxCell id="JRVUR8td_TuOC18Qz_Jx-245" value="v1/" style="text;html=1;align=center;verticalAlign=middle;whiteSpace=wrap;rounded=0;" vertex="1" parent="1">
          <mxGeometry x="320" y="576.5" width="30" height="20" as="geometry" />
        </mxCell>
        <mxCell id="JRVUR8td_TuOC18Qz_Jx-246" value="view&lt;div&gt;1&lt;/div&gt;" style="text;html=1;align=center;verticalAlign=middle;whiteSpace=wrap;rounded=0;" vertex="1" parent="1">
          <mxGeometry x="380" y="557" width="30" height="30" as="geometry" />
        </mxCell>
        <mxCell id="JRVUR8td_TuOC18Qz_Jx-247" value="view&lt;div&gt;3&lt;/div&gt;" style="text;html=1;align=center;verticalAlign=middle;whiteSpace=wrap;rounded=0;" vertex="1" parent="1">
          <mxGeometry x="380" y="604" width="30" height="30" as="geometry" />
        </mxCell>
        <mxCell id="JRVUR8td_TuOC18Qz_Jx-248" value="view&lt;div&gt;4&lt;/div&gt;" style="text;html=1;align=center;verticalAlign=middle;whiteSpace=wrap;rounded=0;" vertex="1" parent="1">
          <mxGeometry x="428" y="604.5" width="30" height="30" as="geometry" />
        </mxCell>
        <mxCell id="JRVUR8td_TuOC18Qz_Jx-249" value="view&lt;div&gt;n&lt;/div&gt;" style="text;html=1;align=center;verticalAlign=middle;whiteSpace=wrap;rounded=0;" vertex="1" parent="1">
          <mxGeometry x="428" y="654" width="30" height="30" as="geometry" />
        </mxCell>
        <mxCell id="JRVUR8td_TuOC18Qz_Jx-250" value="view&lt;div&gt;5&lt;/div&gt;" style="text;html=1;align=center;verticalAlign=middle;whiteSpace=wrap;rounded=0;" vertex="1" parent="1">
          <mxGeometry x="380" y="654" width="30" height="30" as="geometry" />
        </mxCell>
        <mxCell id="JRVUR8td_TuOC18Qz_Jx-251" value="v2/" style="text;html=1;align=center;verticalAlign=middle;whiteSpace=wrap;rounded=0;" vertex="1" parent="1">
          <mxGeometry x="320" y="596.5" width="30" height="20" as="geometry" />
        </mxCell>
        <mxCell id="JRVUR8td_TuOC18Qz_Jx-252" style="edgeStyle=orthogonalEdgeStyle;rounded=0;orthogonalLoop=1;jettySize=auto;html=1;exitX=1;exitY=0.5;exitDx=0;exitDy=0;entryX=0.5;entryY=0;entryDx=0;entryDy=0;" edge="1" parent="1" source="JRVUR8td_TuOC18Qz_Jx-253" target="JRVUR8td_TuOC18Qz_Jx-247">
          <mxGeometry relative="1" as="geometry">
            <Array as="points">
              <mxPoint x="370" y="626.5" />
              <mxPoint x="370" y="600.5" />
              <mxPoint x="395" y="600.5" />
            </Array>
          </mxGeometry>
        </mxCell>
        <mxCell id="JRVUR8td_TuOC18Qz_Jx-253" value="v3/" style="text;html=1;align=center;verticalAlign=middle;whiteSpace=wrap;rounded=0;" vertex="1" parent="1">
          <mxGeometry x="320" y="616.5" width="30" height="20" as="geometry" />
        </mxCell>
        <mxCell id="JRVUR8td_TuOC18Qz_Jx-254" value="v4/" style="text;html=1;align=center;verticalAlign=middle;whiteSpace=wrap;rounded=0;" vertex="1" parent="1">
          <mxGeometry x="320" y="636.5" width="30" height="20" as="geometry" />
        </mxCell>
        <mxCell id="JRVUR8td_TuOC18Qz_Jx-255" style="edgeStyle=orthogonalEdgeStyle;rounded=0;orthogonalLoop=1;jettySize=auto;html=1;exitX=1;exitY=0.5;exitDx=0;exitDy=0;entryX=0.5;entryY=0;entryDx=0;entryDy=0;" edge="1" parent="1" source="JRVUR8td_TuOC18Qz_Jx-256" target="JRVUR8td_TuOC18Qz_Jx-250">
          <mxGeometry relative="1" as="geometry">
            <Array as="points">
              <mxPoint x="370" y="665.5" />
              <mxPoint x="370" y="650.5" />
              <mxPoint x="395" y="650.5" />
            </Array>
          </mxGeometry>
        </mxCell>
        <mxCell id="JRVUR8td_TuOC18Qz_Jx-256" value="v5/" style="text;html=1;align=center;verticalAlign=middle;whiteSpace=wrap;rounded=0;" vertex="1" parent="1">
          <mxGeometry x="320" y="655" width="30" height="20" as="geometry" />
        </mxCell>
        <mxCell id="JRVUR8td_TuOC18Qz_Jx-257" style="edgeStyle=orthogonalEdgeStyle;rounded=0;orthogonalLoop=1;jettySize=auto;html=1;exitX=1;exitY=0.5;exitDx=0;exitDy=0;entryX=0.5;entryY=0;entryDx=0;entryDy=0;" edge="1" parent="1" source="JRVUR8td_TuOC18Qz_Jx-258" target="JRVUR8td_TuOC18Qz_Jx-249">
          <mxGeometry relative="1" as="geometry">
            <Array as="points">
              <mxPoint x="370" y="684.5" />
              <mxPoint x="370" y="690.5" />
              <mxPoint x="420" y="690.5" />
              <mxPoint x="420" y="650.5" />
              <mxPoint x="443" y="650.5" />
            </Array>
          </mxGeometry>
        </mxCell>
        <mxCell id="JRVUR8td_TuOC18Qz_Jx-258" value="vn/" style="text;html=1;align=center;verticalAlign=middle;whiteSpace=wrap;rounded=0;" vertex="1" parent="1">
          <mxGeometry x="320" y="675" width="30" height="20" as="geometry" />
        </mxCell>
        <mxCell id="JRVUR8td_TuOC18Qz_Jx-259" style="edgeStyle=orthogonalEdgeStyle;rounded=0;orthogonalLoop=1;jettySize=auto;html=1;exitX=1;exitY=0.5;exitDx=0;exitDy=0;entryX=0.5;entryY=0;entryDx=0;entryDy=0;" edge="1" parent="1" source="JRVUR8td_TuOC18Qz_Jx-251" target="JRVUR8td_TuOC18Qz_Jx-243">
          <mxGeometry relative="1" as="geometry">
            <mxPoint x="355" y="606.5" as="sourcePoint" />
            <mxPoint x="448.21000000000004" y="554.6899999999999" as="targetPoint" />
            <Array as="points">
              <mxPoint x="365" y="606.5" />
              <mxPoint x="365" y="590.5" />
              <mxPoint x="420" y="590.5" />
              <mxPoint x="420" y="550.5" />
              <mxPoint x="443" y="550.5" />
            </Array>
          </mxGeometry>
        </mxCell>
        <mxCell id="JRVUR8td_TuOC18Qz_Jx-260" style="edgeStyle=orthogonalEdgeStyle;rounded=0;orthogonalLoop=1;jettySize=auto;html=1;exitX=1;exitY=0.5;exitDx=0;exitDy=0;entryX=0.5;entryY=0;entryDx=0;entryDy=0;" edge="1" parent="1" source="JRVUR8td_TuOC18Qz_Jx-254" target="JRVUR8td_TuOC18Qz_Jx-248">
          <mxGeometry relative="1" as="geometry">
            <Array as="points">
              <mxPoint x="370" y="646.5" />
              <mxPoint x="370" y="640.5" />
              <mxPoint x="420" y="640.5" />
              <mxPoint x="420" y="600.5" />
              <mxPoint x="443" y="600.5" />
            </Array>
          </mxGeometry>
        </mxCell>
        <mxCell id="JRVUR8td_TuOC18Qz_Jx-261" value="" style="whiteSpace=wrap;html=1;" vertex="1" parent="1">
          <mxGeometry x="500.5" y="358" width="170" height="160" as="geometry" />
        </mxCell>
        <mxCell id="JRVUR8td_TuOC18Qz_Jx-262" value="" style="rounded=0;whiteSpace=wrap;html=1;" vertex="1" parent="1">
          <mxGeometry x="550.5" y="358" width="120" height="160" as="geometry" />
        </mxCell>
        <mxCell id="JRVUR8td_TuOC18Qz_Jx-263" value="App 2" style="text;html=1;align=center;verticalAlign=middle;whiteSpace=wrap;rounded=0;" vertex="1" parent="1">
          <mxGeometry x="631.5" y="335" width="50" height="30" as="geometry" />
        </mxCell>
        <mxCell id="JRVUR8td_TuOC18Qz_Jx-264" value="" style="rounded=0;whiteSpace=wrap;html=1;" vertex="1" parent="1">
          <mxGeometry x="500.5" y="358" width="50" height="30" as="geometry" />
        </mxCell>
        <mxCell id="JRVUR8td_TuOC18Qz_Jx-265" value="App2&lt;div&gt;URL&lt;/div&gt;" style="text;html=1;align=center;verticalAlign=middle;whiteSpace=wrap;rounded=0;" vertex="1" parent="1">
          <mxGeometry x="510.5" y="358" width="30" height="30" as="geometry" />
        </mxCell>
        <mxCell id="JRVUR8td_TuOC18Qz_Jx-266" value="" style="rounded=0;whiteSpace=wrap;html=1;" vertex="1" parent="1">
          <mxGeometry x="570.5" y="374.5" width="30" height="30" as="geometry" />
        </mxCell>
        <mxCell id="JRVUR8td_TuOC18Qz_Jx-267" value="" style="rounded=0;whiteSpace=wrap;html=1;" vertex="1" parent="1">
          <mxGeometry x="618.5" y="374.5" width="30" height="30" as="geometry" />
        </mxCell>
        <mxCell id="JRVUR8td_TuOC18Qz_Jx-268" value="" style="rounded=0;whiteSpace=wrap;html=1;" vertex="1" parent="1">
          <mxGeometry x="570.5" y="421.5" width="30" height="30" as="geometry" />
        </mxCell>
        <mxCell id="JRVUR8td_TuOC18Qz_Jx-269" value="" style="rounded=0;whiteSpace=wrap;html=1;" vertex="1" parent="1">
          <mxGeometry x="618.5" y="421.5" width="30" height="30" as="geometry" />
        </mxCell>
        <mxCell id="JRVUR8td_TuOC18Qz_Jx-270" value="" style="rounded=0;whiteSpace=wrap;html=1;" vertex="1" parent="1">
          <mxGeometry x="570.5" y="471.5" width="30" height="30" as="geometry" />
        </mxCell>
        <mxCell id="JRVUR8td_TuOC18Qz_Jx-271" value="" style="rounded=0;whiteSpace=wrap;html=1;" vertex="1" parent="1">
          <mxGeometry x="618.5" y="471.5" width="30" height="30" as="geometry" />
        </mxCell>
        <mxCell id="JRVUR8td_TuOC18Qz_Jx-272" value="view&lt;div&gt;2&lt;/div&gt;" style="text;html=1;align=center;verticalAlign=middle;whiteSpace=wrap;rounded=0;" vertex="1" parent="1">
          <mxGeometry x="618.5" y="374.5" width="30" height="30" as="geometry" />
        </mxCell>
        <mxCell id="JRVUR8td_TuOC18Qz_Jx-273" style="edgeStyle=orthogonalEdgeStyle;rounded=0;orthogonalLoop=1;jettySize=auto;html=1;exitX=1;exitY=0.5;exitDx=0;exitDy=0;entryX=0.5;entryY=0;entryDx=0;entryDy=0;" edge="1" parent="1" source="JRVUR8td_TuOC18Qz_Jx-274" target="JRVUR8td_TuOC18Qz_Jx-275">
          <mxGeometry relative="1" as="geometry">
            <Array as="points">
              <mxPoint x="560.5" y="404" />
              <mxPoint x="560.5" y="368" />
              <mxPoint x="585.5" y="368" />
            </Array>
          </mxGeometry>
        </mxCell>
        <mxCell id="JRVUR8td_TuOC18Qz_Jx-274" value="v1/" style="text;html=1;align=center;verticalAlign=middle;whiteSpace=wrap;rounded=0;" vertex="1" parent="1">
          <mxGeometry x="510.5" y="394" width="30" height="20" as="geometry" />
        </mxCell>
        <mxCell id="JRVUR8td_TuOC18Qz_Jx-275" value="view&lt;div&gt;1&lt;/div&gt;" style="text;html=1;align=center;verticalAlign=middle;whiteSpace=wrap;rounded=0;" vertex="1" parent="1">
          <mxGeometry x="570.5" y="374.5" width="30" height="30" as="geometry" />
        </mxCell>
        <mxCell id="JRVUR8td_TuOC18Qz_Jx-276" value="view&lt;div&gt;3&lt;/div&gt;" style="text;html=1;align=center;verticalAlign=middle;whiteSpace=wrap;rounded=0;" vertex="1" parent="1">
          <mxGeometry x="570.5" y="421.5" width="30" height="30" as="geometry" />
        </mxCell>
        <mxCell id="JRVUR8td_TuOC18Qz_Jx-277" value="view&lt;div&gt;4&lt;/div&gt;" style="text;html=1;align=center;verticalAlign=middle;whiteSpace=wrap;rounded=0;" vertex="1" parent="1">
          <mxGeometry x="618.5" y="422" width="30" height="30" as="geometry" />
        </mxCell>
        <mxCell id="JRVUR8td_TuOC18Qz_Jx-278" value="view&lt;div&gt;n&lt;/div&gt;" style="text;html=1;align=center;verticalAlign=middle;whiteSpace=wrap;rounded=0;" vertex="1" parent="1">
          <mxGeometry x="618.5" y="471.5" width="30" height="30" as="geometry" />
        </mxCell>
        <mxCell id="JRVUR8td_TuOC18Qz_Jx-279" value="view&lt;div&gt;5&lt;/div&gt;" style="text;html=1;align=center;verticalAlign=middle;whiteSpace=wrap;rounded=0;" vertex="1" parent="1">
          <mxGeometry x="570.5" y="471.5" width="30" height="30" as="geometry" />
        </mxCell>
        <mxCell id="JRVUR8td_TuOC18Qz_Jx-280" value="v2/" style="text;html=1;align=center;verticalAlign=middle;whiteSpace=wrap;rounded=0;" vertex="1" parent="1">
          <mxGeometry x="510.5" y="414" width="30" height="20" as="geometry" />
        </mxCell>
        <mxCell id="JRVUR8td_TuOC18Qz_Jx-281" style="edgeStyle=orthogonalEdgeStyle;rounded=0;orthogonalLoop=1;jettySize=auto;html=1;exitX=1;exitY=0.5;exitDx=0;exitDy=0;entryX=0.5;entryY=0;entryDx=0;entryDy=0;" edge="1" parent="1" source="JRVUR8td_TuOC18Qz_Jx-282" target="JRVUR8td_TuOC18Qz_Jx-276">
          <mxGeometry relative="1" as="geometry">
            <Array as="points">
              <mxPoint x="560.5" y="444" />
              <mxPoint x="560.5" y="418" />
              <mxPoint x="585.5" y="418" />
            </Array>
          </mxGeometry>
        </mxCell>
        <mxCell id="JRVUR8td_TuOC18Qz_Jx-282" value="v3/" style="text;html=1;align=center;verticalAlign=middle;whiteSpace=wrap;rounded=0;" vertex="1" parent="1">
          <mxGeometry x="510.5" y="434" width="30" height="20" as="geometry" />
        </mxCell>
        <mxCell id="JRVUR8td_TuOC18Qz_Jx-283" value="v4/" style="text;html=1;align=center;verticalAlign=middle;whiteSpace=wrap;rounded=0;" vertex="1" parent="1">
          <mxGeometry x="510.5" y="454" width="30" height="20" as="geometry" />
        </mxCell>
        <mxCell id="JRVUR8td_TuOC18Qz_Jx-284" style="edgeStyle=orthogonalEdgeStyle;rounded=0;orthogonalLoop=1;jettySize=auto;html=1;exitX=1;exitY=0.5;exitDx=0;exitDy=0;entryX=0.5;entryY=0;entryDx=0;entryDy=0;" edge="1" parent="1" source="JRVUR8td_TuOC18Qz_Jx-285" target="JRVUR8td_TuOC18Qz_Jx-279">
          <mxGeometry relative="1" as="geometry">
            <Array as="points">
              <mxPoint x="560.5" y="483" />
              <mxPoint x="560.5" y="468" />
              <mxPoint x="585.5" y="468" />
            </Array>
          </mxGeometry>
        </mxCell>
        <mxCell id="JRVUR8td_TuOC18Qz_Jx-285" value="v5/" style="text;html=1;align=center;verticalAlign=middle;whiteSpace=wrap;rounded=0;" vertex="1" parent="1">
          <mxGeometry x="510.5" y="472.5" width="30" height="20" as="geometry" />
        </mxCell>
        <mxCell id="JRVUR8td_TuOC18Qz_Jx-286" style="edgeStyle=orthogonalEdgeStyle;rounded=0;orthogonalLoop=1;jettySize=auto;html=1;exitX=1;exitY=0.5;exitDx=0;exitDy=0;entryX=0.5;entryY=0;entryDx=0;entryDy=0;" edge="1" parent="1" source="JRVUR8td_TuOC18Qz_Jx-287" target="JRVUR8td_TuOC18Qz_Jx-278">
          <mxGeometry relative="1" as="geometry">
            <Array as="points">
              <mxPoint x="560.5" y="502" />
              <mxPoint x="560.5" y="508" />
              <mxPoint x="610.5" y="508" />
              <mxPoint x="610.5" y="468" />
              <mxPoint x="633.5" y="468" />
            </Array>
          </mxGeometry>
        </mxCell>
        <mxCell id="JRVUR8td_TuOC18Qz_Jx-287" value="vn/" style="text;html=1;align=center;verticalAlign=middle;whiteSpace=wrap;rounded=0;" vertex="1" parent="1">
          <mxGeometry x="510.5" y="492.5" width="30" height="20" as="geometry" />
        </mxCell>
        <mxCell id="JRVUR8td_TuOC18Qz_Jx-288" style="edgeStyle=orthogonalEdgeStyle;rounded=0;orthogonalLoop=1;jettySize=auto;html=1;exitX=1;exitY=0.5;exitDx=0;exitDy=0;entryX=0.5;entryY=0;entryDx=0;entryDy=0;" edge="1" parent="1" source="JRVUR8td_TuOC18Qz_Jx-280" target="JRVUR8td_TuOC18Qz_Jx-272">
          <mxGeometry relative="1" as="geometry">
            <mxPoint x="545.5" y="424" as="sourcePoint" />
            <mxPoint x="638.71" y="372.18999999999994" as="targetPoint" />
            <Array as="points">
              <mxPoint x="555.5" y="424" />
              <mxPoint x="555.5" y="408" />
              <mxPoint x="610.5" y="408" />
              <mxPoint x="610.5" y="368" />
              <mxPoint x="633.5" y="368" />
            </Array>
          </mxGeometry>
        </mxCell>
        <mxCell id="JRVUR8td_TuOC18Qz_Jx-289" style="edgeStyle=orthogonalEdgeStyle;rounded=0;orthogonalLoop=1;jettySize=auto;html=1;exitX=1;exitY=0.5;exitDx=0;exitDy=0;entryX=0.5;entryY=0;entryDx=0;entryDy=0;" edge="1" parent="1" source="JRVUR8td_TuOC18Qz_Jx-283" target="JRVUR8td_TuOC18Qz_Jx-277">
          <mxGeometry relative="1" as="geometry">
            <Array as="points">
              <mxPoint x="560.5" y="464" />
              <mxPoint x="560.5" y="458" />
              <mxPoint x="610.5" y="458" />
              <mxPoint x="610.5" y="418" />
              <mxPoint x="633.5" y="418" />
            </Array>
          </mxGeometry>
        </mxCell>
        <mxCell id="JRVUR8td_TuOC18Qz_Jx-290" value="" style="whiteSpace=wrap;html=1;" vertex="1" parent="1">
          <mxGeometry x="310.5" y="358.5" width="170" height="160" as="geometry" />
        </mxCell>
        <mxCell id="JRVUR8td_TuOC18Qz_Jx-291" value="" style="rounded=0;whiteSpace=wrap;html=1;" vertex="1" parent="1">
          <mxGeometry x="360.5" y="358.5" width="120" height="160" as="geometry" />
        </mxCell>
        <mxCell id="JRVUR8td_TuOC18Qz_Jx-292" value="App 1" style="text;html=1;align=center;verticalAlign=middle;whiteSpace=wrap;rounded=0;" vertex="1" parent="1">
          <mxGeometry x="442.5" y="335.5" width="50" height="30" as="geometry" />
        </mxCell>
        <mxCell id="JRVUR8td_TuOC18Qz_Jx-293" value="" style="rounded=0;whiteSpace=wrap;html=1;" vertex="1" parent="1">
          <mxGeometry x="310.5" y="358.5" width="50" height="30" as="geometry" />
        </mxCell>
        <mxCell id="JRVUR8td_TuOC18Qz_Jx-294" value="App1&lt;div&gt;URL&lt;/div&gt;" style="text;html=1;align=center;verticalAlign=middle;whiteSpace=wrap;rounded=0;" vertex="1" parent="1">
          <mxGeometry x="320.5" y="358.5" width="30" height="30" as="geometry" />
        </mxCell>
        <mxCell id="JRVUR8td_TuOC18Qz_Jx-295" value="" style="rounded=0;whiteSpace=wrap;html=1;" vertex="1" parent="1">
          <mxGeometry x="380.5" y="375" width="30" height="30" as="geometry" />
        </mxCell>
        <mxCell id="JRVUR8td_TuOC18Qz_Jx-296" value="" style="rounded=0;whiteSpace=wrap;html=1;" vertex="1" parent="1">
          <mxGeometry x="428.5" y="375" width="30" height="30" as="geometry" />
        </mxCell>
        <mxCell id="JRVUR8td_TuOC18Qz_Jx-297" value="" style="rounded=0;whiteSpace=wrap;html=1;" vertex="1" parent="1">
          <mxGeometry x="380.5" y="422" width="30" height="30" as="geometry" />
        </mxCell>
        <mxCell id="JRVUR8td_TuOC18Qz_Jx-298" value="" style="rounded=0;whiteSpace=wrap;html=1;" vertex="1" parent="1">
          <mxGeometry x="428.5" y="422" width="30" height="30" as="geometry" />
        </mxCell>
        <mxCell id="JRVUR8td_TuOC18Qz_Jx-299" value="" style="rounded=0;whiteSpace=wrap;html=1;" vertex="1" parent="1">
          <mxGeometry x="380.5" y="472" width="30" height="30" as="geometry" />
        </mxCell>
        <mxCell id="JRVUR8td_TuOC18Qz_Jx-300" value="" style="rounded=0;whiteSpace=wrap;html=1;" vertex="1" parent="1">
          <mxGeometry x="428.5" y="472" width="30" height="30" as="geometry" />
        </mxCell>
        <mxCell id="JRVUR8td_TuOC18Qz_Jx-301" value="view&lt;div&gt;2&lt;/div&gt;" style="text;html=1;align=center;verticalAlign=middle;whiteSpace=wrap;rounded=0;" vertex="1" parent="1">
          <mxGeometry x="428.5" y="375" width="30" height="30" as="geometry" />
        </mxCell>
        <mxCell id="JRVUR8td_TuOC18Qz_Jx-302" style="edgeStyle=orthogonalEdgeStyle;rounded=0;orthogonalLoop=1;jettySize=auto;html=1;exitX=1;exitY=0.5;exitDx=0;exitDy=0;entryX=0.5;entryY=0;entryDx=0;entryDy=0;" edge="1" parent="1" source="JRVUR8td_TuOC18Qz_Jx-303" target="JRVUR8td_TuOC18Qz_Jx-304">
          <mxGeometry relative="1" as="geometry">
            <Array as="points">
              <mxPoint x="370.5" y="404.5" />
              <mxPoint x="370.5" y="368.5" />
              <mxPoint x="395.5" y="368.5" />
            </Array>
          </mxGeometry>
        </mxCell>
        <mxCell id="JRVUR8td_TuOC18Qz_Jx-303" value="v1/" style="text;html=1;align=center;verticalAlign=middle;whiteSpace=wrap;rounded=0;" vertex="1" parent="1">
          <mxGeometry x="320.5" y="394.5" width="30" height="20" as="geometry" />
        </mxCell>
        <mxCell id="JRVUR8td_TuOC18Qz_Jx-304" value="view&lt;div&gt;1&lt;/div&gt;" style="text;html=1;align=center;verticalAlign=middle;whiteSpace=wrap;rounded=0;" vertex="1" parent="1">
          <mxGeometry x="380.5" y="375" width="30" height="30" as="geometry" />
        </mxCell>
        <mxCell id="JRVUR8td_TuOC18Qz_Jx-305" value="view&lt;div&gt;3&lt;/div&gt;" style="text;html=1;align=center;verticalAlign=middle;whiteSpace=wrap;rounded=0;" vertex="1" parent="1">
          <mxGeometry x="380.5" y="422" width="30" height="30" as="geometry" />
        </mxCell>
        <mxCell id="JRVUR8td_TuOC18Qz_Jx-306" value="view&lt;div&gt;4&lt;/div&gt;" style="text;html=1;align=center;verticalAlign=middle;whiteSpace=wrap;rounded=0;" vertex="1" parent="1">
          <mxGeometry x="428.5" y="422.5" width="30" height="30" as="geometry" />
        </mxCell>
        <mxCell id="JRVUR8td_TuOC18Qz_Jx-307" value="view&lt;div&gt;n&lt;/div&gt;" style="text;html=1;align=center;verticalAlign=middle;whiteSpace=wrap;rounded=0;" vertex="1" parent="1">
          <mxGeometry x="428.5" y="472" width="30" height="30" as="geometry" />
        </mxCell>
        <mxCell id="JRVUR8td_TuOC18Qz_Jx-308" value="view&lt;div&gt;5&lt;/div&gt;" style="text;html=1;align=center;verticalAlign=middle;whiteSpace=wrap;rounded=0;" vertex="1" parent="1">
          <mxGeometry x="380.5" y="472" width="30" height="30" as="geometry" />
        </mxCell>
        <mxCell id="JRVUR8td_TuOC18Qz_Jx-309" value="v2/" style="text;html=1;align=center;verticalAlign=middle;whiteSpace=wrap;rounded=0;" vertex="1" parent="1">
          <mxGeometry x="320.5" y="414.5" width="30" height="20" as="geometry" />
        </mxCell>
        <mxCell id="JRVUR8td_TuOC18Qz_Jx-310" style="edgeStyle=orthogonalEdgeStyle;rounded=0;orthogonalLoop=1;jettySize=auto;html=1;exitX=1;exitY=0.5;exitDx=0;exitDy=0;entryX=0.5;entryY=0;entryDx=0;entryDy=0;" edge="1" parent="1" source="JRVUR8td_TuOC18Qz_Jx-311" target="JRVUR8td_TuOC18Qz_Jx-305">
          <mxGeometry relative="1" as="geometry">
            <Array as="points">
              <mxPoint x="370.5" y="444.5" />
              <mxPoint x="370.5" y="418.5" />
              <mxPoint x="395.5" y="418.5" />
            </Array>
          </mxGeometry>
        </mxCell>
        <mxCell id="JRVUR8td_TuOC18Qz_Jx-311" value="v3/" style="text;html=1;align=center;verticalAlign=middle;whiteSpace=wrap;rounded=0;" vertex="1" parent="1">
          <mxGeometry x="320.5" y="434.5" width="30" height="20" as="geometry" />
        </mxCell>
        <mxCell id="JRVUR8td_TuOC18Qz_Jx-312" value="v4/" style="text;html=1;align=center;verticalAlign=middle;whiteSpace=wrap;rounded=0;" vertex="1" parent="1">
          <mxGeometry x="320.5" y="454.5" width="30" height="20" as="geometry" />
        </mxCell>
        <mxCell id="JRVUR8td_TuOC18Qz_Jx-313" style="edgeStyle=orthogonalEdgeStyle;rounded=0;orthogonalLoop=1;jettySize=auto;html=1;exitX=1;exitY=0.5;exitDx=0;exitDy=0;entryX=0.5;entryY=0;entryDx=0;entryDy=0;" edge="1" parent="1" source="JRVUR8td_TuOC18Qz_Jx-314" target="JRVUR8td_TuOC18Qz_Jx-308">
          <mxGeometry relative="1" as="geometry">
            <Array as="points">
              <mxPoint x="370.5" y="483.5" />
              <mxPoint x="370.5" y="468.5" />
              <mxPoint x="395.5" y="468.5" />
            </Array>
          </mxGeometry>
        </mxCell>
        <mxCell id="JRVUR8td_TuOC18Qz_Jx-314" value="v5/" style="text;html=1;align=center;verticalAlign=middle;whiteSpace=wrap;rounded=0;" vertex="1" parent="1">
          <mxGeometry x="320.5" y="473" width="30" height="20" as="geometry" />
        </mxCell>
        <mxCell id="JRVUR8td_TuOC18Qz_Jx-315" style="edgeStyle=orthogonalEdgeStyle;rounded=0;orthogonalLoop=1;jettySize=auto;html=1;exitX=1;exitY=0.5;exitDx=0;exitDy=0;entryX=0.5;entryY=0;entryDx=0;entryDy=0;" edge="1" parent="1" source="JRVUR8td_TuOC18Qz_Jx-316" target="JRVUR8td_TuOC18Qz_Jx-307">
          <mxGeometry relative="1" as="geometry">
            <Array as="points">
              <mxPoint x="370.5" y="502.5" />
              <mxPoint x="370.5" y="508.5" />
              <mxPoint x="420.5" y="508.5" />
              <mxPoint x="420.5" y="468.5" />
              <mxPoint x="443.5" y="468.5" />
            </Array>
          </mxGeometry>
        </mxCell>
        <mxCell id="JRVUR8td_TuOC18Qz_Jx-316" value="vn/" style="text;html=1;align=center;verticalAlign=middle;whiteSpace=wrap;rounded=0;" vertex="1" parent="1">
          <mxGeometry x="320.5" y="493" width="30" height="20" as="geometry" />
        </mxCell>
        <mxCell id="JRVUR8td_TuOC18Qz_Jx-317" style="edgeStyle=orthogonalEdgeStyle;rounded=0;orthogonalLoop=1;jettySize=auto;html=1;exitX=1;exitY=0.5;exitDx=0;exitDy=0;entryX=0.5;entryY=0;entryDx=0;entryDy=0;" edge="1" parent="1" source="JRVUR8td_TuOC18Qz_Jx-309" target="JRVUR8td_TuOC18Qz_Jx-301">
          <mxGeometry relative="1" as="geometry">
            <mxPoint x="355.5" y="424.5" as="sourcePoint" />
            <mxPoint x="448.71000000000004" y="372.68999999999994" as="targetPoint" />
            <Array as="points">
              <mxPoint x="365.5" y="424.5" />
              <mxPoint x="365.5" y="408.5" />
              <mxPoint x="420.5" y="408.5" />
              <mxPoint x="420.5" y="368.5" />
              <mxPoint x="443.5" y="368.5" />
            </Array>
          </mxGeometry>
        </mxCell>
        <mxCell id="JRVUR8td_TuOC18Qz_Jx-318" style="edgeStyle=orthogonalEdgeStyle;rounded=0;orthogonalLoop=1;jettySize=auto;html=1;exitX=1;exitY=0.5;exitDx=0;exitDy=0;entryX=0.5;entryY=0;entryDx=0;entryDy=0;" edge="1" parent="1" source="JRVUR8td_TuOC18Qz_Jx-312" target="JRVUR8td_TuOC18Qz_Jx-306">
          <mxGeometry relative="1" as="geometry">
            <Array as="points">
              <mxPoint x="370.5" y="464.5" />
              <mxPoint x="370.5" y="458.5" />
              <mxPoint x="420.5" y="458.5" />
              <mxPoint x="420.5" y="418.5" />
              <mxPoint x="443.5" y="418.5" />
            </Array>
          </mxGeometry>
        </mxCell>
      </root>
    </mxGraphModel>
  </diagram>
</mxfile>
